<svg id="Layer_1" data-name="Layer 1" xmlns="http://www.w3.org/2000/svg" viewBox="0 0 77.64 21.71"><defs><style>.cls-1{fill:#333132;}.cls-2{fill:#231f20;}</style></defs><path class="cls-1" d="M11.79,0l0,1.8A20.63,20.63,0,0,1,3,18.37L0,20.5Z"/><path class="cls-1" d="M14.21,0l0,1.26a20.61,20.61,0,0,0,9,17.29L26,20.5Z"/><path class="cls-1" d="M24.62,21.48l.26.18-23.67.05h0A20.62,20.62,0,0,1,24.62,21.48Z"/><path class="cls-2" d="M30,5.71h5.81a11.42,11.42,0,0,1,3,.3,5.3,5.3,0,0,1,2.37,1.45A6.74,6.74,0,0,1,42.68,10a11.46,11.46,0,0,1,.52,3.72,10.12,10.12,0,0,1-.49,3.35A6.87,6.87,0,0,1,41,19.86a5.55,5.55,0,0,1-2.24,1.26,9.64,9.64,0,0,1-2.81.33H30Zm3.18,2.66V18.8h2.37a8.62,8.62,0,0,0,1.92-.15A2.93,2.93,0,0,0,38.76,18a3.31,3.31,0,0,0,.83-1.52,10.4,10.4,0,0,0,.32-2.88,9.54,9.54,0,0,0-.32-2.8,3.79,3.79,0,0,0-.9-1.53,3.11,3.11,0,0,0-1.47-.74,14.54,14.54,0,0,0-2.61-.15Z"/><path class="cls-2" d="M48.76,21.45h-3V10.05h2.8v1.62a5,5,0,0,1,1.3-1.52,2.4,2.4,0,0,1,1.3-.36,3.84,3.84,0,0,1,2,.57L52.2,13a2.66,2.66,0,0,0-1.42-.49,1.72,1.72,0,0,0-1.08.34A2.48,2.48,0,0,0,49,14.11a17.83,17.83,0,0,0-.25,3.82Z"/><path class="cls-2" d="M54.43,8.5V5.71h3V8.5Zm0,13V10.05h3v11.4Z"/><path class="cls-2" d="M65.77,10.05v2.4H63.71v4.6a11.38,11.38,0,0,0,.06,1.63.71.71,0,0,0,.26.38.89.89,0,0,0,.52.15,4,4,0,0,0,1.21-.29L66,21.26a6.06,6.06,0,0,1-2.39.45,3.85,3.85,0,0,1-1.47-.27,2.16,2.16,0,0,1-1-.71,2.91,2.91,0,0,1-.42-1.18,13.71,13.71,0,0,1-.1-2.13v-5H59.29v-2.4h1.39V7.78l3-1.76v4Z"/><path class="cls-2" d="M74.47,17.82l3,.51a4.82,4.82,0,0,1-1.83,2.51,5.33,5.33,0,0,1-3.13.87,5.11,5.11,0,0,1-4.4-1.94A6.55,6.55,0,0,1,67,15.84a6.33,6.33,0,0,1,1.48-4.44,4.89,4.89,0,0,1,3.75-1.61,5.07,5.07,0,0,1,4,1.68q1.47,1.68,1.4,5.15H70.08a3,3,0,0,0,.73,2.09,2.25,2.25,0,0,0,1.74.74,1.84,1.84,0,0,0,1.19-.38A2.43,2.43,0,0,0,74.47,17.82Zm.17-3.05a2.91,2.91,0,0,0-.68-2,2.18,2.18,0,0,0-3.2,0,2.76,2.76,0,0,0-.63,1.95Z"/></svg>